<?xml version="1.0" encoding="UTF-8"?>
<svg width="293px" height="265px" viewBox="0 0 293 265" version="1.1" xmlns="http://www.w3.org/2000/svg" xmlns:xlink="http://www.w3.org/1999/xlink">
    <!-- Generator: Sketch 42 (36781) - http://www.bohemiancoding.com/sketch -->
    <title>Group 18</title>
    <desc>Created with Sketch.</desc>
    <defs>
        <filter x="-50%" y="-50%" width="200%" height="200%" filterUnits="objectBoundingBox" id="filter-1">
            <feGaussianBlur stdDeviation="0" in="SourceGraphic"></feGaussianBlur>
        </filter>
        <rect id="path-2" x="38.6130564" y="60.6388799" width="34.1241788" height="29.4889736" rx="1.45148045"></rect>
        <mask id="mask-3" maskContentUnits="userSpaceOnUse" maskUnits="objectBoundingBox" x="0" y="0" width="29.5636388" height="34.0379957" fill="white">
            <use xlink:href="#path-2"></use>
        </mask>
    </defs>
    <g id="Investor-pitch" stroke="none" stroke-width="1" fill="none" fill-rule="evenodd">
        <g id="LandingPage" transform="translate(-796.000000, -21.000000)">
            <g id="Group-18" transform="translate(682.000000, 18.000000)">
                <g id="Group-39" transform="translate(0.000000, 163.000000)" font-size="75.905197" font-family="Poppins-Medium, Poppins" letter-spacing="-3.82763734" font-weight="400">
                    <g id="Group-13">
                        <g id="Group-Copy-2">
                            <text id="Drop" fill="#0C1B2E">
                                <tspan x="239.05634" y="85">Drop</tspan>
                            </text>
                            <text id="Key" fill="#F43A5C">
                                <tspan x="109.256565" y="85">Key</tspan>
                            </text>
                        </g>
                    </g>
                </g>
                <g id="Group-5" transform="translate(249.000000, 111.500000) rotate(1.000000) translate(-249.000000, -111.500000) translate(152.000000, 2.000000)">
                    <g id="Group-4" transform="translate(-0.000000, 8.382775)">
                        <g id="Group" transform="translate(0.000000, 0.000000)">
                            <g id="Group-2-Copy" transform="translate(97.009855, 104.979898) rotate(-17.000000) translate(-97.009855, -104.979898) translate(23.080125, 18.008606)" fill="#0C1B2E">
                                <g id="Key-Copy-5" transform="translate(73.679587, 86.613550) rotate(-288.000000) translate(-73.679587, -86.613550) translate(-0.250142, 33.697282)">
                                    <g id="Key" transform="translate(73.481177, 53.263864) scale(-1, 1) rotate(-270.000000) translate(-73.481177, -53.263864) translate(21.048744, -20.085418)">
                                        <path d="M41.1237808,60.8856203 C44.6305121,59.8670583 48.334818,59.3214876 52.1650008,59.3214876 C74.2315635,59.3214876 92.1200471,77.4299415 92.1200471,99.7678514 C92.1200471,122.105761 74.2315635,140.214215 52.1650008,140.214215 C30.0984381,140.214215 12.2099546,122.105761 12.2099546,99.7678514 C12.2099546,87.3766536 17.7144186,76.2869014 26.3830951,68.8676238 L26.383098,8.76212553 C26.383098,7.8010355 27.1791674,6.99978648 28.1611688,6.99978648 L40.9039652,6.99978648 C41.0296497,6.99978648 41.1237808,7.0970594 41.1237808,7.21705163 L41.1237808,60.8856203 Z M73.0660861,6.98764519 C73.5557638,6.98764519 73.952726,7.38322621 73.952726,7.87476992 L73.952726,39.2670568 C73.952726,39.7570023 73.5487295,40.1541816 73.0660861,40.1541816 L45.3740961,40.1541816 L45.3740961,6.98764519 L73.0660861,6.98764519 Z M41.7573911,120.963838 C48.7563617,120.963838 54.4301484,115.244391 54.4301484,108.189097 C54.4301484,101.133802 48.7563617,95.4143559 41.7573911,95.4143559 C34.7584205,95.4143559 29.0846338,101.133802 29.0846338,108.189097 C29.0846338,115.244391 34.7584205,120.963838 41.7573911,120.963838 Z" id="Combined-Shape" filter="url(#filter-1)" transform="translate(52.165001, 73.607001) rotate(11.000000) translate(-52.165001, -73.607001) "></path>
                                    </g>
                                </g>
                            </g>
                            <use id="Rectangle-50-Copy-6" stroke="#0C1B2E" mask="url(#mask-3)" stroke-width="11.3841604" stroke-linecap="square" fill="#F43A5C" transform="translate(55.675146, 75.383367) rotate(-46.000000) translate(-55.675146, -75.383367) " xlink:href="#path-2"></use>
                            <path d="M58.8869453,76.0997754 L48.180947,66.0700534" id="Line" stroke="#0C1B2E" stroke-width="4.469256" stroke-linecap="square"></path>
                        </g>
                    </g>
                    <path d="M125.474093,12.1866459 L125.474093,71.7240403" id="Line" stroke="#F43A5C" stroke-width="2.234628" stroke-linecap="square"></path>
                    <path d="M104.872272,1.6239355 L104.872272,33.2754115" id="Line-Copy-59" stroke="#F43A5C" stroke-width="1.3966425" stroke-linecap="square"></path>
                </g>
            </g>
        </g>
    </g>
</svg>